<?xml version="1.0" encoding="UTF-8"?>
<!DOCTYPE svg PUBLIC "-//W3C//DTD SVG 1.1//EN" "http://www.w3.org/Graphics/SVG/1.1/DTD/svg11.dtd">
<svg xmlns="http://www.w3.org/2000/svg" version="1.1" width="500px" height="500px" style="shape-rendering:geometricPrecision; text-rendering:geometricPrecision; image-rendering:optimizeQuality; fill-rule:evenodd; clip-rule:evenodd" xmlns:xlink="http://www.w3.org/1999/xlink">
<g><path style="opacity:1" fill="#093639" d="M 167.5,124.5 C 163.178,120.728 158.178,119.394 152.5,120.5C 154.368,121.913 156.368,123.08 158.5,124C 150.933,124.058 143.6,125.392 136.5,128C 139.513,128.502 142.513,129.002 145.5,129.5C 145.997,133.759 145.331,137.759 143.5,141.5C 144.32,143.111 145.654,143.778 147.5,143.5C 147.84,146.144 147.173,148.477 145.5,150.5C 149.706,152.537 154.04,153.037 158.5,152C 157.058,152.377 156.058,153.21 155.5,154.5C 150.384,155.516 145.384,156.85 140.5,158.5C 138.803,158.101 137.137,157.601 135.5,157C 136.451,156.282 136.617,155.449 136,154.5C 134.67,153.418 133.17,152.751 131.5,152.5C 121.214,138.148 122.547,124.982 135.5,113C 132.936,110.724 133.27,108.724 136.5,107C 143.524,102.435 151.19,99.4351 159.5,98C 159.043,97.586 158.709,97.086 158.5,96.5C 173.484,94.5773 183.984,100.577 190,114.5C 190.629,123.577 187.629,131.243 181,137.5C 178.049,131.718 173.549,127.385 167.5,124.5 Z"/></g>
<g><path style="opacity:0.859" fill="#69787d" d="M 348.5,101.5 C 342.528,100.526 336.528,100.359 330.5,101C 332.382,101.198 334.048,101.698 335.5,102.5C 327.09,101.634 320.09,104.301 314.5,110.5C 314.167,110.5 313.833,110.5 313.5,110.5C 317.187,104.802 322.52,101.302 329.5,100C 335.986,98.4353 342.319,98.9353 348.5,101.5 Z"/></g>
<g><path style="opacity:1" fill="#0b383b" d="M 335.5,102.5 C 338.425,102.46 341.091,103.293 343.5,105C 341.913,105.862 340.246,106.529 338.5,107C 353.799,107.296 363.633,114.796 368,129.5C 368.249,128.376 368.749,127.376 369.5,126.5C 371.15,133.734 370.484,140.734 367.5,147.5C 367.624,148.107 367.957,148.44 368.5,148.5C 367.645,149.531 366.978,150.697 366.5,152C 367.187,153.162 367.353,154.328 367,155.5C 364.843,157.495 362.343,158.828 359.5,159.5C 355.297,158.091 350.964,156.924 346.5,156C 346.167,155.667 345.833,155.333 345.5,155C 346.5,154.667 347.5,154.333 348.5,154C 349.061,152.324 350.061,150.991 351.5,150C 348.833,149.667 346.167,149.333 343.5,149C 346.412,147.76 349.079,146.094 351.5,144C 350.062,143.781 348.729,143.281 347.5,142.5C 349.632,139.104 350.965,135.437 351.5,131.5C 353.271,130.134 354.938,128.634 356.5,127C 352.417,125.148 348.084,123.981 343.5,123.5C 345.304,122.232 347.304,121.565 349.5,121.5C 349.5,120.5 349.5,119.5 349.5,118.5C 345.1,118.683 340.766,119.349 336.5,120.5C 332.03,122.973 327.363,124.973 322.5,126.5C 322.5,127.833 322.5,129.167 322.5,130.5C 321.298,132.392 319.965,134.226 318.5,136C 317.551,136.617 316.718,136.451 316,135.5C 310.817,129.547 308.984,122.88 310.5,115.5C 310.338,117.527 310.505,119.527 311,121.5C 311.114,117.426 312.28,113.76 314.5,110.5C 320.09,104.301 327.09,101.634 335.5,102.5 Z"/></g>
<g><path style="opacity:0.22" fill="#3c3f43" d="M 356.5,105.5 C 359.098,106.528 359.098,107.528 356.5,108.5C 350.042,107.46 350.042,106.46 356.5,105.5 Z"/></g>
<g><path style="opacity:0.11" fill="#44494c" d="M 269.5,109.5 C 269.5,109.167 269.5,108.833 269.5,108.5C 274.192,108.425 278.526,109.425 282.5,111.5C 278.193,110.673 273.86,110.007 269.5,109.5 Z"/></g>
<g><path style="opacity:1" fill="#f7f9f9" d="M 269.5,109.5 C 273.86,110.007 278.193,110.673 282.5,111.5C 285.018,112.264 287.351,113.264 289.5,114.5C 290.66,116.203 289.993,116.869 287.5,116.5C 286.167,116.5 284.833,116.5 283.5,116.5C 281.712,115.378 279.712,115.211 277.5,116C 279.345,117.128 281.345,117.628 283.5,117.5C 286.912,118.075 289.912,119.408 292.5,121.5C 292.842,122.338 293.508,122.672 294.5,122.5C 294.973,123.906 295.973,124.573 297.5,124.5C 298.035,126.446 299.368,127.446 301.5,127.5C 302.167,127.5 302.5,127.833 302.5,128.5C 303.262,130.262 304.596,131.262 306.5,131.5C 308.167,132.5 309.5,133.833 310.5,135.5C 310.427,137.027 311.094,138.027 312.5,138.5C 315.987,142.142 318.987,146.142 321.5,150.5C 321.5,151.167 321.5,151.833 321.5,152.5C 321.5,153.167 321.833,153.5 322.5,153.5C 322.5,153.833 322.5,154.167 322.5,154.5C 322.461,155.756 322.961,156.756 324,157.5C 324.191,155.292 324.691,153.292 325.5,151.5C 326.804,152.987 327.97,154.654 329,156.5C 336.697,163.366 344.197,170.366 351.5,177.5C 350.555,180.987 348.222,182.32 344.5,181.5C 344.167,181.5 343.833,181.5 343.5,181.5C 342.432,180.566 341.099,180.232 339.5,180.5C 338.833,180.5 338.167,180.5 337.5,180.5C 336.054,179.387 334.387,179.22 332.5,180C 333.745,180.791 335.078,181.291 336.5,181.5C 338.181,183.008 340.181,184.008 342.5,184.5C 346.482,187.152 350.149,190.152 353.5,193.5C 354.087,194.767 354.087,195.767 353.5,196.5C 347.439,195.049 341.439,195.216 335.5,197C 336.563,198.188 337.897,198.688 339.5,198.5C 340.167,198.5 340.833,198.5 341.5,198.5C 358.937,215.473 365.27,235.806 360.5,259.5C 359.797,257.371 358.797,255.371 357.5,253.5C 356.109,251.04 354.942,248.374 354,245.5C 352.951,243.382 351.451,241.716 349.5,240.5C 352.326,258.688 347.326,274.354 334.5,287.5C 333.646,286.368 333.646,285.035 334.5,283.5C 334.878,281.079 335.545,278.746 336.5,276.5C 337.648,272.019 337.815,267.352 337,262.5C 336.495,264.518 335.995,266.518 335.5,268.5C 333.357,276.946 329.024,284.113 322.5,290C 320.283,291.723 317.95,293.223 315.5,294.5C 314.414,294.38 313.747,293.713 313.5,292.5C 315.097,287.911 315.931,283.245 316,278.5C 314.82,280.86 313.653,283.193 312.5,285.5C 312.5,285.833 312.5,286.167 312.5,286.5C 311.662,286.842 311.328,287.508 311.5,288.5C 310.833,288.5 310.5,288.833 310.5,289.5C 307.833,291.5 305.5,293.833 303.5,296.5C 302.833,296.5 302.5,296.833 302.5,297.5C 301.833,297.5 301.5,297.833 301.5,298.5C 300.167,299.167 298.833,299.833 297.5,300.5C 296.662,300.158 296.328,299.492 296.5,298.5C 297.931,297.22 298.598,295.553 298.5,293.5C 298.5,292.5 298.5,291.5 298.5,290.5C 297.11,291.899 296.11,293.566 295.5,295.5C 293.194,298.473 290.527,301.14 287.5,303.5C 286.596,302.791 286.263,301.791 286.5,300.5C 288.213,299.365 288.88,297.698 288.5,295.5C 288.433,294.041 288.766,292.708 289.5,291.5C 290.802,288.893 290.636,286.227 289,283.5C 288.517,284.448 288.351,285.448 288.5,286.5C 288.595,289.697 287.928,292.697 286.5,295.5C 285.833,295.5 285.5,295.167 285.5,294.5C 285.291,293.078 284.791,291.745 284,290.5C 283.333,289.167 282.667,289.167 282,290.5C 280.961,289.756 280.461,288.756 280.5,287.5C 280.5,286.167 280.5,284.833 280.5,283.5C 282.04,281.162 282.706,278.495 282.5,275.5C 283.858,273.482 285.525,271.649 287.5,270C 286.402,269.23 286.402,268.397 287.5,267.5C 287.842,266.662 288.508,266.328 289.5,266.5C 291.027,266.573 292.027,265.906 292.5,264.5C 295.89,261.045 298.223,257.045 299.5,252.5C 300.404,251.791 300.737,250.791 300.5,249.5C 301.317,247.031 301.817,244.365 302,241.5C 305.555,248.388 307.222,255.721 307,263.5C 308.385,262.449 309.385,261.116 310,259.5C 312.864,250.359 311.697,241.859 306.5,234C 306.728,233.601 307.062,233.435 307.5,233.5C 315.362,235.484 323.362,235.984 331.5,235C 332.416,234.626 333.25,234.126 334,233.5C 336.129,222.007 333.296,212.007 325.5,203.5C 324.149,201.608 323.482,199.442 323.5,197C 325.55,189.885 324.383,183.385 320,177.5C 319.617,178.056 319.117,178.389 318.5,178.5C 315.058,175.707 311.391,173.373 307.5,171.5C 305.393,169.348 302.726,168.348 299.5,168.5C 295.306,168.597 291.973,170.263 289.5,173.5C 283.151,180.358 277.151,187.525 271.5,195C 266.51,194.615 261.843,193.115 257.5,190.5C 256.167,188.833 254.833,187.167 253.5,185.5C 252.708,184.033 252.708,182.7 253.5,181.5C 255.861,183.455 258.528,184.288 261.5,184C 258.244,182.413 256.077,179.913 255,176.5C 254.061,171.491 254.561,166.658 256.5,162C 256.452,160.967 256.119,160.634 255.5,161C 254.54,162.419 253.707,163.919 253,165.5C 252.667,164.5 252.333,163.5 252,162.5C 251.062,164.488 250.228,166.488 249.5,168.5C 249.5,169.5 249.5,170.5 249.5,171.5C 247.924,168.648 246.424,165.648 245,162.5C 246.364,170.458 245.364,178.125 242,185.5C 238.682,187.659 238.849,188.325 242.5,187.5C 243.298,187.957 243.631,188.624 243.5,189.5C 243.5,189.833 243.5,190.167 243.5,190.5C 239.075,194.189 234.075,195.522 228.5,194.5C 224.81,189.815 221.143,185.148 217.5,180.5C 217.918,179.778 218.584,179.278 219.5,179C 215.753,174.582 211.42,170.916 206.5,168C 199.908,167.131 194.574,169.298 190.5,174.5C 183.644,180.857 180.144,188.857 180,198.5C 168.628,204.615 165.628,213.615 171,225.5C 173.729,229.779 177.562,232.446 182.5,233.5C 184.948,234.473 187.615,234.806 190.5,234.5C 188.525,238.588 187.025,242.922 186,247.5C 185.667,247.833 185.333,248.167 185,248.5C 184.667,246.167 184.333,243.833 184,241.5C 183.818,244.226 183.318,246.893 182.5,249.5C 176.544,233.193 173.711,233.193 174,249.5C 172.885,245.271 171.219,241.271 169,237.5C 166.294,235.129 163.961,232.463 162,229.5C 161.333,230.833 160.667,232.167 160,233.5C 159.667,238.833 159.333,244.167 159,249.5C 153.908,236.884 154.408,224.55 160.5,212.5C 160.333,212.167 160.167,211.833 160,211.5C 158.667,212.833 157.333,214.167 156,215.5C 157.51,210.948 160.343,207.114 164.5,204C 160.487,205.776 156.487,207.943 152.5,210.5C 151.702,210.043 151.369,209.376 151.5,208.5C 153.833,206.833 155.833,204.833 157.5,202.5C 161.333,201.437 161.333,200.604 157.5,200C 158.167,199.667 158.833,199.333 159.5,199C 156.46,198.68 153.46,198.68 150.5,199C 152.001,197.748 153.668,196.748 155.5,196C 156.696,195.346 156.696,194.846 155.5,194.5C 148.806,196.929 142.64,200.262 137,204.5C 136.536,203.906 136.369,203.239 136.5,202.5C 138.882,197.752 142.216,193.752 146.5,190.5C 148.027,190.573 149.027,189.906 149.5,188.5C 151.404,188.262 152.738,187.262 153.5,185.5C 155.403,185.204 157.07,184.537 158.5,183.5C 160.403,183.204 162.07,182.537 163.5,181.5C 157.94,180.562 152.607,179.229 147.5,177.5C 149.094,174.236 151.427,171.569 154.5,169.5C 156.749,168.92 158.415,167.587 159.5,165.5C 159.973,164.094 160.973,163.427 162.5,163.5C 164.027,163.573 165.027,162.906 165.5,161.5C 165.842,160.662 166.508,160.328 167.5,160.5C 168.496,160.586 169.329,160.252 170,159.5C 170.464,160.094 170.631,160.761 170.5,161.5C 170.5,163.167 170.5,164.833 170.5,166.5C 171.092,169.127 171.425,171.794 171.5,174.5C 173.984,178.797 176.484,183.13 179,187.5C 178.019,182.973 177.519,178.307 177.5,173.5C 178.222,173.918 178.722,174.584 179,175.5C 179.151,167.076 179.985,158.742 181.5,150.5C 181.796,148.597 182.463,146.93 183.5,145.5C 184.906,145.027 185.573,144.027 185.5,142.5C 185.328,141.508 185.662,140.842 186.5,140.5C 187.906,140.027 188.573,139.027 188.5,137.5C 189.906,137.027 190.573,136.027 190.5,134.5C 192.262,133.738 193.262,132.404 193.5,130.5C 195.262,129.738 196.262,128.404 196.5,126.5C 196.738,124.596 197.738,123.262 199.5,122.5C 201.196,122.315 202.529,121.481 203.5,120C 210.302,117.305 211.136,118.471 206,123.5C 204.374,126.058 203.374,128.725 203,131.5C 207.728,124.754 213.561,119.587 220.5,116C 214.991,122.203 212.991,129.37 214.5,137.5C 228.763,120.534 247.097,111.2 269.5,109.5 Z M 251.5,175.5 C 250.576,178.553 250.576,181.553 251.5,184.5C 250.883,184.389 250.383,184.056 250,183.5C 248.748,185.001 247.748,186.668 247,188.5C 246.184,189.823 245.017,190.489 243.5,190.5C 243.5,190.167 243.5,189.833 243.5,189.5C 244.974,188.564 245.974,187.23 246.5,185.5C 247.875,181.922 249.541,178.589 251.5,175.5 Z M 251.5,184.5 C 252.167,184.833 252.833,185.167 253.5,185.5C 254.833,187.167 256.167,188.833 257.5,190.5C 255.246,189.585 253.246,188.252 251.5,186.5C 251.5,185.833 251.5,185.167 251.5,184.5 Z M 153.5,202.5 C 154.833,201.167 156.167,201.167 157.5,202.5C 156.391,202.557 155.391,202.89 154.5,203.5C 154.5,202.833 154.167,202.5 153.5,202.5 Z M 233.5,218.5 C 232.737,219.268 231.737,219.768 230.5,220C 232.592,220.953 232.925,222.286 231.5,224C 230.181,224.195 228.847,224.028 227.5,223.5C 226.088,222.834 224.755,222.501 223.5,222.5C 225.891,219.083 229.225,217.75 233.5,218.5 Z M 279.5,221.5 C 279.932,222.71 280.599,223.71 281.5,224.5C 281.5,227.167 281.5,229.833 281.5,232.5C 280.094,232.973 279.427,233.973 279.5,235.5C 277.181,235.992 275.181,236.992 273.5,238.5C 272.167,238.5 270.833,238.5 269.5,238.5C 268.947,236.448 267.947,236.115 266.5,237.5C 265.127,237.657 263.793,237.49 262.5,237C 263.669,235.164 265.336,233.998 267.5,233.5C 270.066,235.599 272.733,235.932 275.5,234.5C 279.171,231.751 280.337,228.084 279,223.5C 275.743,220.572 271.909,219.738 267.5,221C 264.28,222.352 260.947,223.186 257.5,223.5C 257.5,223.167 257.5,222.833 257.5,222.5C 262.482,221.174 267.482,219.841 272.5,218.5C 275.176,218.939 277.509,219.939 279.5,221.5 Z M 327.5,214.5 C 329.39,214.297 330.89,214.963 332,216.5C 333.439,221.762 333.772,227.096 333,232.5C 316.503,237.332 313.169,232.666 323,218.5C 324.667,217.267 326.167,215.933 327.5,214.5 Z M 302.5,230.5 C 302.328,231.492 302.662,232.158 303.5,232.5C 304.21,236.251 305.21,239.918 306.5,243.5C 305.833,243.5 305.167,243.5 304.5,243.5C 303.833,242.167 303.167,240.833 302.5,239.5C 302.489,237.983 301.823,236.816 300.5,236C 301.109,234.052 301.776,232.218 302.5,230.5 Z M 235.5,231.5 C 241.933,234.066 242.933,238.4 238.5,244.5C 236.121,243.085 236.121,241.418 238.5,239.5C 238.457,238.584 238.124,237.917 237.5,237.5C 236.729,235.886 235.729,234.386 234.5,233C 234.57,232.235 234.903,231.735 235.5,231.5 Z M 271.5,232.5 C 272.077,231.227 272.743,231.227 273.5,232.5C 273.03,233.463 272.363,233.463 271.5,232.5 Z M 348.5,237.5 C 349.11,238.391 349.443,239.391 349.5,240.5C 348.5,240.167 347.833,239.5 347.5,238.5C 347.5,237.833 347.833,237.5 348.5,237.5 Z M 266.5,240.5 C 266.5,240.833 266.5,241.167 266.5,241.5C 266.167,242.833 265.833,244.167 265.5,245.5C 264.833,245.5 264.167,245.5 263.5,245.5C 263.5,243.833 263.5,242.167 263.5,240.5C 264.5,240.5 265.5,240.5 266.5,240.5 Z M 263.5,245.5 C 261.575,247.462 259.242,248.295 256.5,248C 258.569,246.477 260.903,245.643 263.5,245.5 Z M 298.5,290.5 C 298.5,291.5 298.5,292.5 298.5,293.5C 297.5,294.167 296.5,294.833 295.5,295.5C 296.11,293.566 297.11,291.899 298.5,290.5 Z"/></g>
<g><path style="opacity:0.78" fill="#3f5c61" d="M 253.5,108.5 C 248.722,110.279 243.722,111.613 238.5,112.5C 243.112,110.095 248.112,108.762 253.5,108.5 Z"/></g>
<g><path style="opacity:1" fill="#5f7f82" d="M 225.5,117.5 C 225.714,115.856 225.38,114.356 224.5,113C 227.121,112.094 226.954,111.594 224,111.5C 219.163,112.948 214.329,114.281 209.5,115.5C 216.562,111.155 224.229,109.489 232.5,110.5C 229.812,112.521 227.479,114.854 225.5,117.5 Z"/></g>
<g><path style="opacity:0.345" fill="#666667" d="M 283.5,116.5 C 283.5,116.833 283.5,117.167 283.5,117.5C 281.345,117.628 279.345,117.128 277.5,116C 279.712,115.211 281.712,115.378 283.5,116.5 Z"/></g>
<g><path style="opacity:0.686" fill="#6c6f75" d="M 289.5,114.5 C 291.757,114.962 293.757,115.962 295.5,117.5C 295,117.833 294.5,118.167 294,118.5C 291.654,118.01 289.487,117.343 287.5,116.5C 289.993,116.869 290.66,116.203 289.5,114.5 Z"/></g>
<g><path style="opacity:0.998" fill="#aec1c4" d="M 313.5,110.5 C 313.833,110.5 314.167,110.5 314.5,110.5C 312.28,113.76 311.114,117.426 311,121.5C 310.505,119.527 310.338,117.527 310.5,115.5C 310.75,113.326 311.75,111.659 313.5,110.5 Z"/></g>
<g><path style="opacity:0.994" fill="#d4dadd" d="M 348.5,101.5 C 351.754,101.794 354.421,103.127 356.5,105.5C 350.042,106.46 350.042,107.46 356.5,108.5C 364.155,111.323 369.321,116.656 372,124.5C 374.706,133.128 373.54,141.128 368.5,148.5C 367.957,148.44 367.624,148.107 367.5,147.5C 370.484,140.734 371.15,133.734 369.5,126.5C 368.749,127.376 368.249,128.376 368,129.5C 363.633,114.796 353.799,107.296 338.5,107C 340.246,106.529 341.913,105.862 343.5,105C 341.091,103.293 338.425,102.46 335.5,102.5C 334.048,101.698 332.382,101.198 330.5,101C 336.528,100.359 342.528,100.526 348.5,101.5 Z"/></g>
<g><path style="opacity:0.867" fill="#0a2429" d="M 167.5,124.5 C 165.94,124.481 164.44,124.148 163,123.5C 160.671,126.826 157.671,127.493 154,125.5C 150.825,125.946 147.658,126.446 144.5,127C 145.949,132.402 147.449,137.902 149,143.5C 152.919,145.362 156.919,147.029 161,148.5C 161.198,152.144 159.365,154.144 155.5,154.5C 156.058,153.21 157.058,152.377 158.5,152C 154.04,153.037 149.706,152.537 145.5,150.5C 147.173,148.477 147.84,146.144 147.5,143.5C 145.654,143.778 144.32,143.111 143.5,141.5C 145.331,137.759 145.997,133.759 145.5,129.5C 142.513,129.002 139.513,128.502 136.5,128C 143.6,125.392 150.933,124.058 158.5,124C 156.368,123.08 154.368,121.913 152.5,120.5C 158.178,119.394 163.178,120.728 167.5,124.5 Z"/></g>
<g><path style="opacity:0.757" fill="#092026" d="M 351.5,131.5 C 352.038,129.883 352.371,128.216 352.5,126.5C 347.85,125.555 343.184,125.388 338.5,126C 336.043,124.846 336.043,123.512 338.5,122C 332.591,123.458 327.258,126.291 322.5,130.5C 322.5,129.167 322.5,127.833 322.5,126.5C 327.363,124.973 332.03,122.973 336.5,120.5C 340.766,119.349 345.1,118.683 349.5,118.5C 349.5,119.5 349.5,120.5 349.5,121.5C 347.304,121.565 345.304,122.232 343.5,123.5C 348.084,123.981 352.417,125.148 356.5,127C 354.938,128.634 353.271,130.134 351.5,131.5 Z"/></g>
<g><path style="opacity:0.027" fill="#1e2020" d="M 294.5,122.5 C 293.508,122.672 292.842,122.338 292.5,121.5C 293.925,119.969 294.591,120.302 294.5,122.5 Z"/></g>
<g><path style="opacity:1" fill="#89bbb9" d="M 269.5,108.5 C 269.5,108.833 269.5,109.167 269.5,109.5C 247.097,111.2 228.763,120.534 214.5,137.5C 212.991,129.37 214.991,122.203 220.5,116C 213.561,119.587 207.728,124.754 203,131.5C 203.374,128.725 204.374,126.058 206,123.5C 211.136,118.471 210.302,117.305 203.5,120C 202.529,121.481 201.196,122.315 199.5,122.5C 202.125,119.185 205.458,116.851 209.5,115.5C 214.329,114.281 219.163,112.948 224,111.5C 226.954,111.594 227.121,112.094 224.5,113C 225.38,114.356 225.714,115.856 225.5,117.5C 223.93,118.875 223.097,120.541 223,122.5C 224.376,121.295 225.542,119.962 226.5,118.5C 230.248,115.959 234.248,113.959 238.5,112.5C 243.722,111.613 248.722,110.279 253.5,108.5C 258.734,107.198 264.067,107.198 269.5,108.5 Z"/></g>
<g><path style="opacity:0.608" fill="#204044" d="M 225.5,117.5 C 225.5,118.167 225.833,118.5 226.5,118.5C 225.542,119.962 224.376,121.295 223,122.5C 223.097,120.541 223.93,118.875 225.5,117.5 Z"/></g>
<g><path style="opacity:0.035" fill="#272828" d="M 294.5,122.5 C 296.027,122.427 297.027,123.094 297.5,124.5C 295.973,124.573 294.973,123.906 294.5,122.5 Z"/></g>
<g><path style="opacity:0.886" fill="#656973" d="M 297.5,124.5 C 299.23,125.026 300.564,126.026 301.5,127.5C 299.368,127.446 298.035,126.446 297.5,124.5 Z"/></g>
<g><path style="opacity:0.537" fill="#6b6b71" d="M 196.5,126.5 C 196.262,128.404 195.262,129.738 193.5,130.5C 193.738,128.596 194.738,127.262 196.5,126.5 Z"/></g>
<g><path style="opacity:0.027" fill="#393a3b" d="M 302.5,128.5 C 304.404,128.738 305.738,129.738 306.5,131.5C 304.596,131.262 303.262,130.262 302.5,128.5 Z"/></g>
<g><path style="opacity:0.475" fill="#606666" d="M 193.5,130.5 C 193.262,132.404 192.262,133.738 190.5,134.5C 190.738,132.596 191.738,131.262 193.5,130.5 Z"/></g>
<g><path style="opacity:0.408" fill="#666769" d="M 190.5,134.5 C 190.573,136.027 189.906,137.027 188.5,137.5C 188.427,135.973 189.094,134.973 190.5,134.5 Z"/></g>
<g><path style="opacity:0.671" fill="#5e5e60" d="M 310.5,135.5 C 311.906,135.973 312.573,136.973 312.5,138.5C 311.094,138.027 310.427,137.027 310.5,135.5 Z"/></g>
<g><path style="opacity:0.424" fill="#666e6f" d="M 188.5,137.5 C 188.573,139.027 187.906,140.027 186.5,140.5C 186.427,138.973 187.094,137.973 188.5,137.5 Z"/></g>
<g><path style="opacity:0.298" fill="#595b5e" d="M 185.5,142.5 C 185.573,144.027 184.906,145.027 183.5,145.5C 183.427,143.973 184.094,142.973 185.5,142.5 Z"/></g>
<g><path style="opacity:0.812" fill="#909395" d="M 324.5,148.5 C 325.11,149.391 325.443,150.391 325.5,151.5C 324.691,153.292 324.191,155.292 324,157.5C 322.961,156.756 322.461,155.756 322.5,154.5C 323.167,154.5 323.5,154.167 323.5,153.5C 323.216,151.585 323.549,149.919 324.5,148.5 Z"/></g>
<g><path style="opacity:0.008" fill="#191b1b" d="M 324.5,148.5 C 323.549,149.919 323.216,151.585 323.5,153.5C 323.167,153.5 322.833,153.5 322.5,153.5C 321.833,153.5 321.5,153.167 321.5,152.5C 322.833,151.833 322.833,151.167 321.5,150.5C 321.668,147.949 322.668,147.282 324.5,148.5 Z"/></g>
<g><path style="opacity:0.657" fill="#0a1e23" d="M 351.5,131.5 C 350.965,135.437 349.632,139.104 347.5,142.5C 348.729,143.281 350.062,143.781 351.5,144C 349.079,146.094 346.412,147.76 343.5,149C 346.167,149.333 348.833,149.667 351.5,150C 350.061,150.991 349.061,152.324 348.5,154C 347.5,154.333 346.5,154.667 345.5,155C 345.833,155.333 346.167,155.667 346.5,156C 350.964,156.924 355.297,158.091 359.5,159.5C 357.473,161.088 355.139,161.588 352.5,161C 349.039,158.612 345.206,156.778 341,155.5C 339.699,154.902 338.865,153.902 338.5,152.5C 343.844,146.191 348.178,139.191 351.5,131.5 Z"/></g>
<g><path style="opacity:0.91" fill="#5f7c7e" d="M 176.5,167.5 C 175.676,163.688 175.176,159.688 175,155.5C 174.434,157.723 173.6,159.723 172.5,161.5C 172.5,161.167 172.5,160.833 172.5,160.5C 173.565,155.036 175.732,150.036 179,145.5C 177.221,152.654 176.388,159.987 176.5,167.5 Z"/></g>
<g><path style="opacity:0.251" fill="#0a1e23" d="M 131.5,152.5 C 133.17,152.751 134.67,153.418 136,154.5C 136.617,155.449 136.451,156.282 135.5,157C 137.137,157.601 138.803,158.101 140.5,158.5C 145.384,156.85 150.384,155.516 155.5,154.5C 151.38,156.877 147.047,158.877 142.5,160.5C 136.347,160.341 132.681,157.674 131.5,152.5 Z"/></g>
<g><path style="opacity:0.678" fill="#75757a" d="M 165.5,161.5 C 165.027,162.906 164.027,163.573 162.5,163.5C 162.973,162.094 163.973,161.427 165.5,161.5 Z"/></g>
<g><path style="opacity:0.933" fill="#8f9394" d="M 159.5,165.5 C 158.415,167.587 156.749,168.92 154.5,169.5C 155.585,167.413 157.251,166.08 159.5,165.5 Z"/></g>
<g><path style="opacity:0.639" fill="#5f6468" d="M 181.5,150.5 C 179.985,158.742 179.151,167.076 179,175.5C 178.722,174.584 178.222,173.918 177.5,173.5C 177.5,173.167 177.5,172.833 177.5,172.5C 178.833,171.5 178.833,170.5 177.5,169.5C 176.662,169.158 176.328,168.492 176.5,167.5C 177.927,161.796 179.593,156.129 181.5,150.5 Z"/></g>
<g><path style="opacity:1" fill="#83aeac" d="M 307.5,171.5 C 305.5,171.5 303.5,171.5 301.5,171.5C 297.476,172.038 293.476,172.705 289.5,173.5C 291.973,170.263 295.306,168.597 299.5,168.5C 302.726,168.348 305.393,169.348 307.5,171.5 Z"/></g>
<g><path style="opacity:0.282" fill="#293e42" d="M 172.5,160.5 C 172.5,160.833 172.5,161.167 172.5,161.5C 172.818,166.032 172.485,170.366 171.5,174.5C 171.425,171.794 171.092,169.127 170.5,166.5C 171.833,164.833 171.833,163.167 170.5,161.5C 170.631,160.761 170.464,160.094 170,159.5C 169.329,160.252 168.496,160.586 167.5,160.5C 169.134,157.849 170.801,157.849 172.5,160.5 Z"/></g>
<g><path style="opacity:0.945" fill="#89b5b4" d="M 217.5,180.5 C 215.037,178.539 212.703,176.372 210.5,174C 208.975,172.991 207.308,172.491 205.5,172.5C 202.696,171.362 199.696,171.195 196.5,172C 194.593,173.122 192.593,173.955 190.5,174.5C 194.574,169.298 199.908,167.131 206.5,168C 211.42,170.916 215.753,174.582 219.5,179C 218.584,179.278 217.918,179.778 217.5,180.5 Z"/></g>
<g><path style="opacity:1" fill="#64878c" d="M 249.5,168.5 C 250.675,168.281 251.675,168.614 252.5,169.5C 251.652,171.409 251.318,173.409 251.5,175.5C 249.541,178.589 247.875,181.922 246.5,185.5C 247.191,180.74 248.191,176.074 249.5,171.5C 249.5,170.5 249.5,169.5 249.5,168.5 Z"/></g>
<g><path style="opacity:1" fill="#99c1bf" d="M 253.5,185.5 C 252.833,185.167 252.167,184.833 251.5,184.5C 250.576,181.553 250.576,178.553 251.5,175.5C 251.318,173.409 251.652,171.409 252.5,169.5C 251.675,168.614 250.675,168.281 249.5,168.5C 250.228,166.488 251.062,164.488 252,162.5C 252.333,163.5 252.667,164.5 253,165.5C 253.707,163.919 254.54,162.419 255.5,161C 256.119,160.634 256.452,160.967 256.5,162C 254.561,166.658 254.061,171.491 255,176.5C 256.077,179.913 258.244,182.413 261.5,184C 258.528,184.288 255.861,183.455 253.5,181.5C 252.708,182.7 252.708,184.033 253.5,185.5 Z"/></g>
<g><path style="opacity:0.973" fill="#98c3c1" d="M 176.5,167.5 C 176.328,168.492 176.662,169.158 177.5,169.5C 177.5,170.5 177.5,171.5 177.5,172.5C 177.5,172.833 177.5,173.167 177.5,173.5C 177.519,178.307 178.019,182.973 179,187.5C 176.484,183.13 173.984,178.797 171.5,174.5C 172.485,170.366 172.818,166.032 172.5,161.5C 173.6,159.723 174.434,157.723 175,155.5C 175.176,159.688 175.676,163.688 176.5,167.5 Z"/></g>
<g><path style="opacity:0.043" fill="#143234" d="M 301.5,171.5 C 303.5,171.5 305.5,171.5 307.5,171.5C 311.391,173.373 315.058,175.707 318.5,178.5C 319.11,179.391 319.443,180.391 319.5,181.5C 317.79,179.8 315.79,178.467 313.5,177.5C 312.702,179.078 312.202,180.744 312,182.5C 310.867,184.211 309.367,184.711 307.5,184C 304.833,182.333 302.167,180.667 299.5,179C 302.959,175.285 306.792,174.785 311,177.5C 311.167,177.167 311.333,176.833 311.5,176.5C 308.64,173.737 305.307,172.07 301.5,171.5 Z"/></g>
<g><path style="opacity:0.294" fill="#5f5f60" d="M 337.5,180.5 C 336.833,180.5 336.5,180.833 336.5,181.5C 335.078,181.291 333.745,180.791 332.5,180C 334.387,179.22 336.054,179.387 337.5,180.5 Z"/></g>
<g><path style="opacity:0.773" fill="#81a7a6" d="M 147.5,177.5 C 152.607,179.229 157.94,180.562 163.5,181.5C 159.629,181.185 155.962,181.518 152.5,182.5C 149.206,183.115 146.039,184.115 143,185.5C 143.18,182.145 144.68,179.478 147.5,177.5 Z"/></g>
<g><path style="opacity:1" fill="#92c2be" d="M 249.5,171.5 C 248.191,176.074 247.191,180.74 246.5,185.5C 245.974,187.23 244.974,188.564 243.5,189.5C 243.631,188.624 243.298,187.957 242.5,187.5C 238.849,188.325 238.682,187.659 242,185.5C 245.364,178.125 246.364,170.458 245,162.5C 246.424,165.648 247.924,168.648 249.5,171.5 Z"/></g>
<g><path style="opacity:0.999" fill="#c0d2d3" d="M 325.5,203.5 C 323.66,201.832 321.66,200.332 319.5,199C 320.448,198.517 321.448,198.351 322.5,198.5C 322.5,197.167 322.5,195.833 322.5,194.5C 322.133,189.997 321.133,185.664 319.5,181.5C 319.443,180.391 319.11,179.391 318.5,178.5C 319.117,178.389 319.617,178.056 320,177.5C 324.383,183.385 325.55,189.885 323.5,197C 323.482,199.442 324.149,201.608 325.5,203.5 Z"/></g>
<g><path style="opacity:0.639" fill="#5e5f60" d="M 339.5,181.5 C 339.5,181.167 339.5,180.833 339.5,180.5C 341.099,180.232 342.432,180.566 343.5,181.5C 342.833,181.833 342.167,182.167 341.5,182.5C 341.158,181.662 340.492,181.328 339.5,181.5 Z"/></g>
<g><path style="opacity:0.988" fill="#bec2c5" d="M 351.5,177.5 C 353.137,179.316 354.637,181.316 356,183.5C 356.688,184.332 356.521,184.998 355.5,185.5C 351.724,184.133 348.057,182.8 344.5,181.5C 348.222,182.32 350.555,180.987 351.5,177.5 Z"/></g>
<g><path style="opacity:0.031" fill="#3d3e3f" d="M 336.5,181.5 C 337.5,181.5 338.5,181.5 339.5,181.5C 339.842,182.338 340.508,182.672 341.5,182.5C 341.833,183.167 342.167,183.833 342.5,184.5C 340.181,184.008 338.181,183.008 336.5,181.5 Z"/></g>
<g><path style="opacity:0.231" fill="#2b3539" d="M 152.5,182.5 C 155.962,181.518 159.629,181.185 163.5,181.5C 162.07,182.537 160.403,183.204 158.5,183.5C 157.07,184.537 155.403,185.204 153.5,185.5C 154.815,184.105 154.481,183.105 152.5,182.5 Z"/></g>
<g><path style="opacity:0.416" fill="#56585a" d="M 153.5,185.5 C 152.738,187.262 151.404,188.262 149.5,188.5C 150.262,186.738 151.596,185.738 153.5,185.5 Z"/></g>
<g><path style="opacity:0.314" fill="#1a3308" d="M 211.5,189.5 C 210.833,189.5 210.167,189.5 209.5,189.5C 209.786,187.067 210.452,187.067 211.5,189.5 Z"/></g>
<g><path style="opacity:0.549" fill="#606466" d="M 149.5,188.5 C 149.027,189.906 148.027,190.573 146.5,190.5C 146.973,189.094 147.973,188.427 149.5,188.5 Z"/></g>
<g><path style="opacity:0.118" fill="#224707" d="M 211.5,189.5 C 213.38,189.229 214.713,189.896 215.5,191.5C 213.847,191.34 212.514,190.674 211.5,189.5 Z"/></g>
<g><path style="opacity:1" fill="#89dc1e" d="M 209.5,189.5 C 210.167,189.5 210.833,189.5 211.5,189.5C 212.514,190.674 213.847,191.34 215.5,191.5C 215.567,192.959 215.234,194.292 214.5,195.5C 210.092,195.938 208.425,193.938 209.5,189.5 Z"/></g>
<g><path style="opacity:0.659" fill="#3e565a" d="M 251.5,186.5 C 253.246,188.252 255.246,189.585 257.5,190.5C 257.804,191.15 258.137,191.817 258.5,192.5C 257.095,192.76 255.762,193.093 254.5,193.5C 252.014,192.538 252.014,191.705 254.5,191C 252.859,189.871 251.859,188.371 251.5,186.5 Z"/></g>
<g><path style="opacity:1" fill="#5abb3e" d="M 290.5,194.5 C 290.5,195.167 290.167,195.5 289.5,195.5C 287.5,195.5 285.5,195.5 283.5,195.5C 283.433,194.041 283.766,192.708 284.5,191.5C 286.262,191.643 287.929,191.309 289.5,190.5C 290.429,191.689 290.762,193.022 290.5,194.5 Z"/></g>
<g><path style="opacity:0.988" fill="#779fa0" d="M 251.5,184.5 C 251.5,185.167 251.5,185.833 251.5,186.5C 251.859,188.371 252.859,189.871 254.5,191C 252.014,191.705 252.014,192.538 254.5,193.5C 255.167,193.833 255.833,194.167 256.5,194.5C 256.611,195.117 256.944,195.617 257.5,196C 256.584,196.278 255.918,196.778 255.5,197.5C 254.085,196.711 252.585,196.044 251,195.5C 248.535,196.651 246.035,197.651 243.5,198.5C 242.432,197.566 241.099,197.232 239.5,197.5C 239.062,197.565 238.728,197.399 238.5,197C 239.416,196.722 240.082,196.222 240.5,195.5C 242.14,194.68 243.807,193.847 245.5,193C 244.244,192.583 243.577,191.75 243.5,190.5C 245.017,190.489 246.184,189.823 247,188.5C 247.748,186.668 248.748,185.001 250,183.5C 250.383,184.056 250.883,184.389 251.5,184.5 Z"/></g>
<g><path style="opacity:0.106" fill="#30512a" d="M 290.5,194.5 C 290.762,193.022 290.429,191.689 289.5,190.5C 287.929,191.309 286.262,191.643 284.5,191.5C 286.789,189.419 289.289,188.419 292,188.5C 293.867,190.756 293.867,193.09 292,195.5C 291.617,194.944 291.117,194.611 290.5,194.5 Z"/></g>
<g><path style="opacity:0.686" fill="#376312" d="M 198.5,191.5 C 197.85,193.435 197.517,195.435 197.5,197.5C 195.188,195.348 195.522,193.348 198.5,191.5 Z"/></g>
<g><path style="opacity:0.745" fill="#36672a" d="M 284.5,191.5 C 283.766,192.708 283.433,194.041 283.5,195.5C 285.5,195.5 287.5,195.5 289.5,195.5C 290.552,197.655 289.886,197.988 287.5,196.5C 287.167,197.167 286.833,197.833 286.5,198.5C 285.264,197.754 283.93,197.421 282.5,197.5C 281.833,196.5 281.167,195.5 280.5,194.5C 281.262,192.738 282.596,191.738 284.5,191.5 Z"/></g>
<g><path style="opacity:1" fill="#59882b" d="M 209.5,189.5 C 208.425,193.938 210.092,195.938 214.5,195.5C 215.675,195.281 216.675,195.614 217.5,196.5C 215.257,197.474 212.924,197.808 210.5,197.5C 208.629,197.141 207.129,196.141 206,194.5C 205.182,191.773 205.348,189.106 206.5,186.5C 207.141,187.993 208.141,188.993 209.5,189.5 Z"/></g>
<g><path style="opacity:1" fill="#f4f6f7" d="M 255.5,197.5 C 256.391,198.11 257.391,198.443 258.5,198.5C 258.833,198.5 259.167,198.5 259.5,198.5C 262.146,200.253 265.146,201.253 268.5,201.5C 275.251,203.04 280.918,206.374 285.5,211.5C 285.427,213.027 286.094,214.027 287.5,214.5C 293.493,223.005 297.16,232.505 298.5,243C 298.239,253.412 293.239,260.246 283.5,263.5C 278.167,263.5 272.833,263.5 267.5,263.5C 262.126,263.664 257.126,262.664 252.5,260.5C 252.5,257.167 252.5,253.833 252.5,250.5C 256.263,250.143 259.93,249.31 263.5,248C 264.381,247.292 265.047,246.458 265.5,245.5C 266.5,245.167 267.167,244.5 267.5,243.5C 270.803,242.849 273.47,241.182 275.5,238.5C 277.23,237.974 278.564,236.974 279.5,235.5C 280.906,235.027 281.573,234.027 281.5,232.5C 281.5,229.833 281.5,227.167 281.5,224.5C 281.715,222.821 281.048,221.821 279.5,221.5C 277.509,219.939 275.176,218.939 272.5,218.5C 267.482,219.841 262.482,221.174 257.5,222.5C 254.167,222.5 250.833,222.5 247.5,222.5C 246.833,222.5 246.167,222.5 245.5,222.5C 241.703,220.604 237.703,219.271 233.5,218.5C 229.225,217.75 225.891,219.083 223.5,222.5C 222.003,224.29 221.336,226.456 221.5,229C 221.508,230.707 221.842,232.207 222.5,233.5C 222.5,234.167 222.833,234.5 223.5,234.5C 223.5,235.167 223.833,235.5 224.5,235.5C 224.5,235.833 224.5,236.167 224.5,236.5C 225.965,237.737 227.632,238.737 229.5,239.5C 231.425,243.089 234.425,245.089 238.5,245.5C 238.973,246.906 239.973,247.573 241.5,247.5C 243.503,249.982 246.169,250.982 249.5,250.5C 249.5,253.5 249.5,256.5 249.5,259.5C 248.609,260.11 247.609,260.443 246.5,260.5C 237.134,261.764 227.8,260.264 218.5,256C 219.5,255.667 220.5,255.333 221.5,255C 216.027,252.878 212.86,249.045 212,243.5C 222.301,252.193 223.635,251.193 216,240.5C 214.199,236.309 213.533,231.975 214,227.5C 214.778,230.184 216.111,232.517 218,234.5C 214.454,222.346 217.287,212.013 226.5,203.5C 228.898,203.741 230.898,203.074 232.5,201.5C 236.489,201.318 240.156,200.318 243.5,198.5C 246.035,197.651 248.535,196.651 251,195.5C 252.585,196.044 254.085,196.711 255.5,197.5 Z M 233.5,218.5 C 232.737,219.268 231.737,219.768 230.5,220C 232.592,220.953 232.925,222.286 231.5,224C 230.181,224.195 228.847,224.028 227.5,223.5C 226.088,222.834 224.755,222.501 223.5,222.5C 225.891,219.083 229.225,217.75 233.5,218.5 Z M 279.5,221.5 C 279.932,222.71 280.599,223.71 281.5,224.5C 281.5,227.167 281.5,229.833 281.5,232.5C 280.094,232.973 279.427,233.973 279.5,235.5C 277.181,235.992 275.181,236.992 273.5,238.5C 272.167,238.5 270.833,238.5 269.5,238.5C 268.947,236.448 267.947,236.115 266.5,237.5C 265.127,237.657 263.793,237.49 262.5,237C 263.669,235.164 265.336,233.998 267.5,233.5C 270.066,235.599 272.733,235.932 275.5,234.5C 279.171,231.751 280.337,228.084 279,223.5C 275.743,220.572 271.909,219.738 267.5,221C 264.28,222.352 260.947,223.186 257.5,223.5C 257.5,223.167 257.5,222.833 257.5,222.5C 262.482,221.174 267.482,219.841 272.5,218.5C 275.176,218.939 277.509,219.939 279.5,221.5 Z M 235.5,231.5 C 241.933,234.066 242.933,238.4 238.5,244.5C 236.121,243.085 236.121,241.418 238.5,239.5C 238.457,238.584 238.124,237.917 237.5,237.5C 236.729,235.886 235.729,234.386 234.5,233C 234.57,232.235 234.903,231.735 235.5,231.5 Z M 271.5,232.5 C 272.363,233.463 273.03,233.463 273.5,232.5C 272.743,231.227 272.077,231.227 271.5,232.5 Z M 266.5,240.5 C 266.5,240.833 266.5,241.167 266.5,241.5C 266.167,242.833 265.833,244.167 265.5,245.5C 264.833,245.5 264.167,245.5 263.5,245.5C 263.5,243.833 263.5,242.167 263.5,240.5C 264.5,240.5 265.5,240.5 266.5,240.5 Z M 263.5,245.5 C 260.903,245.643 258.569,246.477 256.5,248C 259.242,248.295 261.575,247.462 263.5,245.5 Z M 241.5,247.5 C 241.917,246.876 242.584,246.543 243.5,246.5C 245.5,247 247.5,247.5 249.5,248C 251.119,248.236 252.119,249.069 252.5,250.5C 251.683,252.969 251.183,255.635 251,258.5C 250.817,255.635 250.317,252.969 249.5,250.5C 246.924,249.512 244.257,248.512 241.5,247.5 Z"/></g>
<g><path style="opacity:0.133" fill="#2d3e3f" d="M 256.5,194.5 C 259.336,194.837 260.002,196.171 258.5,198.5C 257.391,198.443 256.391,198.11 255.5,197.5C 255.918,196.778 256.584,196.278 257.5,196C 256.944,195.617 256.611,195.117 256.5,194.5 Z"/></g>
<g><path style="opacity:1" fill="#85b7b5" d="M 353.5,193.5 C 355.89,194.891 357.557,196.891 358.5,199.5C 358.92,201.094 359.586,202.594 360.5,204C 360.164,205.03 359.497,205.53 358.5,205.5C 353.195,202.35 347.529,200.016 341.5,198.5C 340.833,197.167 340.167,197.167 339.5,198.5C 337.897,198.688 336.563,198.188 335.5,197C 341.439,195.216 347.439,195.049 353.5,196.5C 354.087,195.767 354.087,194.767 353.5,193.5 Z"/></g>
<g><path style="opacity:1" fill="#80d11c" d="M 208.5,199.5 C 211.859,200.196 215.193,200.529 218.5,200.5C 217.29,200.932 216.29,201.599 215.5,202.5C 214.833,202.5 214.5,202.833 214.5,203.5C 209.699,205.244 205.365,204.577 201.5,201.5C 201.027,200.094 200.027,199.427 198.5,199.5C 198.167,198.833 197.833,198.167 197.5,197.5C 197.517,195.435 197.85,193.435 198.5,191.5C 203.405,185.543 205.239,186.209 204,193.5C 205.277,195.747 206.777,197.747 208.5,199.5 Z"/></g>
<g><path style="opacity:0.021" fill="#2f3035" d="M 240.5,195.5 C 240.082,196.222 239.416,196.722 238.5,197C 238.728,197.399 239.062,197.565 239.5,197.5C 240.568,198.434 241.901,198.768 243.5,198.5C 240.156,200.318 236.489,201.318 232.5,201.5C 233.641,200.661 234.974,199.994 236.5,199.5C 237.429,198.311 237.762,196.978 237.5,195.5C 238.5,195.5 239.5,195.5 240.5,195.5 Z"/></g>
<g><path style="opacity:0.11" fill="#244317" d="M 215.5,191.5 C 216.66,192.611 217.993,193.611 219.5,194.5C 217.989,196.838 218.323,197.504 220.5,196.5C 221.298,196.957 221.631,197.624 221.5,198.5C 220.71,199.401 219.71,200.068 218.5,200.5C 215.193,200.529 211.859,200.196 208.5,199.5C 210.527,199.662 212.527,199.495 214.5,199C 212.942,198.79 211.609,198.29 210.5,197.5C 212.924,197.808 215.257,197.474 217.5,196.5C 216.675,195.614 215.675,195.281 214.5,195.5C 215.234,194.292 215.567,192.959 215.5,191.5 Z"/></g>
<g><path style="opacity:1" fill="#4b9437" d="M 300.5,198.5 C 300.5,196.5 300.5,194.5 300.5,192.5C 297.364,193.474 295.364,195.641 294.5,199C 292.866,199.494 291.199,199.66 289.5,199.5C 294.324,197.527 296.324,193.861 295.5,188.5C 300.602,189.429 302.769,192.429 302,197.5C 301.617,198.056 301.117,198.389 300.5,198.5 Z"/></g>
<g><path style="opacity:1" fill="#56b736" d="M 300.5,198.5 C 299.415,200.587 297.749,201.92 295.5,202.5C 292.753,202.813 290.086,202.48 287.5,201.5C 288.243,200.818 288.909,200.151 289.5,199.5C 291.199,199.66 292.866,199.494 294.5,199C 295.364,195.641 297.364,193.474 300.5,192.5C 300.5,194.5 300.5,196.5 300.5,198.5 Z"/></g>
<g><path style="opacity:0.827" fill="#3e6d18" d="M 198.5,199.5 C 200.027,199.427 201.027,200.094 201.5,201.5C 199.973,201.573 198.973,200.906 198.5,199.5 Z"/></g>
<g><path style="opacity:1" fill="#82adac" d="M 157.5,202.5 C 156.167,201.167 154.833,201.167 153.5,202.5C 145.496,204.334 138.496,208.001 132.5,213.5C 131.596,212.791 131.263,211.791 131.5,210.5C 132.669,207.489 134.336,204.822 136.5,202.5C 136.369,203.239 136.536,203.906 137,204.5C 142.64,200.262 148.806,196.929 155.5,194.5C 156.696,194.846 156.696,195.346 155.5,196C 153.668,196.748 152.001,197.748 150.5,199C 153.46,198.68 156.46,198.68 159.5,199C 158.833,199.333 158.167,199.667 157.5,200C 161.333,200.604 161.333,201.437 157.5,202.5 Z"/></g>
<g><path style="opacity:0.263" fill="#4e5153" d="M 259.5,198.5 C 262.854,198.747 265.854,199.747 268.5,201.5C 265.146,201.253 262.146,200.253 259.5,198.5 Z"/></g>
<g><path style="opacity:0.043" fill="#152925" d="M 221.5,198.5 C 224.826,198.967 225.159,200.134 222.5,202C 219.818,203.762 217.152,204.262 214.5,203.5C 216.224,203.539 216.557,203.206 215.5,202.5C 216.29,201.599 217.29,200.932 218.5,200.5C 219.71,200.068 220.71,199.401 221.5,198.5 Z"/></g>
<g><path style="opacity:0.271" fill="#0e2a2a" d="M 280.5,194.5 C 281.167,195.5 281.833,196.5 282.5,197.5C 282.5,197.833 282.5,198.167 282.5,198.5C 281.577,197.697 280.577,197.53 279.5,198C 280.71,199.039 281.71,200.206 282.5,201.5C 280.656,203.886 278.489,203.886 276,201.5C 275.727,198.167 277.227,195.833 280.5,194.5 Z"/></g>
<g><path style="opacity:0.69" fill="#606568" d="M 232.5,201.5 C 230.898,203.074 228.898,203.741 226.5,203.5C 228.214,202.262 230.214,201.595 232.5,201.5 Z"/></g>
<g><path style="opacity:1" fill="#458434" d="M 282.5,198.5 C 284.764,199.219 287.097,199.552 289.5,199.5C 288.909,200.151 288.243,200.818 287.5,201.5C 290.086,202.48 292.753,202.813 295.5,202.5C 294.504,203.665 293.171,204.332 291.5,204.5C 288.408,203.692 285.408,202.692 282.5,201.5C 281.71,200.206 280.71,199.039 279.5,198C 280.577,197.53 281.577,197.697 282.5,198.5 Z"/></g>
<g><path style="opacity:0.961" fill="#658285" d="M 358.5,199.5 C 362.919,203.679 365.752,208.679 367,214.5C 364.471,211.165 361.637,208.165 358.5,205.5C 359.497,205.53 360.164,205.03 360.5,204C 359.586,202.594 358.92,201.094 358.5,199.5 Z"/></g>
<g><path style="opacity:0.553" fill="#585c5f" d="M 157.5,202.5 C 155.833,204.833 153.833,206.833 151.5,208.5C 152.075,206.589 153.075,204.922 154.5,203.5C 155.391,202.89 156.391,202.557 157.5,202.5 Z"/></g>
<g><path style="opacity:1" fill="#a0c3c2" d="M 241.5,206.5 C 248.175,206.334 254.842,206.5 261.5,207C 258.237,208.226 254.904,209.393 251.5,210.5C 247.656,209.018 243.656,208.185 239.5,208C 240.416,207.722 241.082,207.222 241.5,206.5 Z"/></g>
<g><path style="opacity:1" fill="#0c373b" d="M 205.5,172.5 C 202.022,172.184 198.688,172.684 195.5,174C 196.5,174.333 197.5,174.667 198.5,175C 198.167,175.333 197.833,175.667 197.5,176C 198.428,176.388 199.095,177.055 199.5,178C 197.825,180.685 195.492,182.685 192.5,184C 193.059,184.725 193.392,185.558 193.5,186.5C 192.6,188.239 191.933,190.072 191.5,192C 193.482,197.851 191.816,202.351 186.5,205.5C 182.843,206.22 182.176,207.72 184.5,210C 182.507,211.592 180.507,213.092 178.5,214.5C 183.702,215.482 183.702,216.648 178.5,218C 180.904,218.508 181.571,219.675 180.5,221.5C 185.787,224.648 191.454,226.481 197.5,227C 198.252,227.671 198.586,228.504 198.5,229.5C 198.672,230.492 198.338,231.158 197.5,231.5C 197.565,231.062 197.399,230.728 197,230.5C 192.528,233.056 187.695,234.056 182.5,233.5C 177.562,232.446 173.729,229.779 171,225.5C 165.628,213.615 168.628,204.615 180,198.5C 180.144,188.857 183.644,180.857 190.5,174.5C 192.593,173.955 194.593,173.122 196.5,172C 199.696,171.195 202.696,171.362 205.5,172.5 Z"/></g>
<g><path style="opacity:0.906" fill="#44595b" d="M 131.5,210.5 C 131.263,211.791 131.596,212.791 132.5,213.5C 131.386,214.885 130.386,216.385 129.5,218C 128.668,218.688 128.002,218.521 127.5,217.5C 128.608,214.941 129.941,212.608 131.5,210.5 Z"/></g>
<g><path style="opacity:0.502" fill="#6b6f71" d="M 285.5,211.5 C 286.906,211.973 287.573,212.973 287.5,214.5C 286.094,214.027 285.427,213.027 285.5,211.5 Z"/></g>
<g><path style="opacity:0.809" fill="#0a2226" d="M 186.5,205.5 C 185.768,208.512 186.435,211.345 188.5,214C 187.182,215.99 185.848,217.99 184.5,220C 188.469,223.548 193.135,225.548 198.5,226C 199.791,227.292 199.791,228.458 198.5,229.5C 198.586,228.504 198.252,227.671 197.5,227C 191.454,226.481 185.787,224.648 180.5,221.5C 181.571,219.675 180.904,218.508 178.5,218C 183.702,216.648 183.702,215.482 178.5,214.5C 180.507,213.092 182.507,211.592 184.5,210C 182.176,207.72 182.843,206.22 186.5,205.5 Z"/></g>
<g><path style="opacity:0.91" fill="#707072" d="M 279.5,221.5 C 281.048,221.821 281.715,222.821 281.5,224.5C 280.599,223.71 279.932,222.71 279.5,221.5 Z"/></g>
<g><path style="opacity:0.933" fill="#7c8d91" d="M 275.5,234.5 C 275.062,234.565 274.728,234.399 274.5,234C 277.089,230.264 277.089,226.598 274.5,223C 269.53,223.704 264.53,224.537 259.5,225.5C 258.508,225.672 257.842,225.338 257.5,224.5C 257.5,224.167 257.5,223.833 257.5,223.5C 260.947,223.186 264.28,222.352 267.5,221C 271.909,219.738 275.743,220.572 279,223.5C 280.337,228.084 279.171,231.751 275.5,234.5 Z"/></g>
<g><path style="opacity:1" fill="#85b9b9" d="M 226.5,203.5 C 217.287,212.013 214.454,222.346 218,234.5C 216.111,232.517 214.778,230.184 214,227.5C 213.533,231.975 214.199,236.309 216,240.5C 223.635,251.193 222.301,252.193 212,243.5C 212.86,249.045 216.027,252.878 221.5,255C 220.5,255.333 219.5,255.667 218.5,256C 227.8,260.264 237.134,261.764 246.5,260.5C 234.626,266.894 222.626,267.06 210.5,261C 203.098,255.696 199.931,248.53 201,239.5C 203.665,226.331 209.832,215.164 219.5,206C 221.765,204.882 224.099,204.049 226.5,203.5 Z"/></g>
<g><path style="opacity:0.434" fill="#0e373a" d="M 322.5,194.5 C 322.5,195.833 322.5,197.167 322.5,198.5C 321.448,198.351 320.448,198.517 319.5,199C 321.66,200.332 323.66,201.832 325.5,203.5C 333.296,212.007 336.129,222.007 334,233.5C 333.25,234.126 332.416,234.626 331.5,235C 323.362,235.984 315.362,235.484 307.5,233.5C 306.295,231.862 304.962,231.529 303.5,232.5C 302.662,232.158 302.328,231.492 302.5,230.5C 302.216,228.585 302.549,226.919 303.5,225.5C 307.634,226.057 311.301,225.057 314.5,222.5C 315.521,221.998 315.688,221.332 315,220.5C 313.38,218.759 311.88,216.925 310.5,215C 311.108,214.13 311.941,213.63 313,213.5C 314.465,214.33 315.965,214.496 317.5,214C 315.445,213.313 313.779,212.146 312.5,210.5C 313.729,209.719 315.062,209.219 316.5,209C 314,206.5 311.5,204 309,201.5C 307.097,199.559 306.264,197.226 306.5,194.5C 307.5,194.5 308.5,194.5 309.5,194.5C 309.076,191.646 308.076,188.979 306.5,186.5C 308.006,185.253 309.506,185.253 311,186.5C 311.806,192.144 314.973,195.81 320.5,197.5C 321.176,196.398 321.842,195.398 322.5,194.5 Z M 327.5,214.5 C 326.167,215.933 324.667,217.267 323,218.5C 313.169,232.666 316.503,237.332 333,232.5C 333.772,227.096 333.439,221.762 332,216.5C 330.89,214.963 329.39,214.297 327.5,214.5 Z"/></g>
<g><path style="opacity:1" fill="#0d2b2f" d="M 233.5,218.5 C 237.703,219.271 241.703,220.604 245.5,222.5C 245.5,222.833 245.5,223.167 245.5,223.5C 244.448,223.351 243.448,223.517 242.5,224C 248.21,226.077 253.877,226.577 259.5,225.5C 264.53,224.537 269.53,223.704 274.5,223C 277.089,226.598 277.089,230.264 274.5,234C 274.728,234.399 275.062,234.565 275.5,234.5C 272.733,235.932 270.066,235.599 267.5,233.5C 265.336,233.998 263.669,235.164 262.5,237C 263.793,237.49 265.127,237.657 266.5,237.5C 265.167,238.5 265.167,239.5 266.5,240.5C 265.5,240.5 264.5,240.5 263.5,240.5C 263.5,242.167 263.5,243.833 263.5,245.5C 264.167,245.5 264.833,245.5 265.5,245.5C 265.047,246.458 264.381,247.292 263.5,248C 259.93,249.31 256.263,250.143 252.5,250.5C 252.119,249.069 251.119,248.236 249.5,248C 247.5,247.5 245.5,247 243.5,246.5C 242.584,246.543 241.917,246.876 241.5,247.5C 239.973,247.573 238.973,246.906 238.5,245.5C 239.833,245.167 239.833,244.833 238.5,244.5C 242.933,238.4 241.933,234.066 235.5,231.5C 235.038,230.12 234.038,229.453 232.5,229.5C 230.547,230.156 228.547,230.489 226.5,230.5C 226.198,227.941 226.532,225.607 227.5,223.5C 228.847,224.028 230.181,224.195 231.5,224C 232.925,222.286 232.592,220.953 230.5,220C 231.737,219.768 232.737,219.268 233.5,218.5 Z M 271.5,232.5 C 272.363,233.463 273.03,233.463 273.5,232.5C 272.743,231.227 272.077,231.227 271.5,232.5 Z M 263.5,245.5 C 260.903,245.643 258.569,246.477 256.5,248C 259.242,248.295 261.575,247.462 263.5,245.5 Z"/></g>
<g><path style="opacity:0.663" fill="#58696e" d="M 247.5,222.5 C 250.833,222.5 254.167,222.5 257.5,222.5C 257.5,222.833 257.5,223.167 257.5,223.5C 250.833,223.833 250.833,224.167 257.5,224.5C 257.842,225.338 258.508,225.672 259.5,225.5C 253.877,226.577 248.21,226.077 242.5,224C 243.448,223.517 244.448,223.351 245.5,223.5C 246.492,223.672 247.158,223.338 247.5,222.5 Z"/></g>
<g><path style="opacity:0.475" fill="#4c4c4e" d="M 281.5,232.5 C 281.573,234.027 280.906,235.027 279.5,235.5C 279.427,233.973 280.094,232.973 281.5,232.5 Z"/></g>
<g><path style="opacity:0.225" fill="#10191e" d="M 223.5,222.5 C 224.755,222.501 226.088,222.834 227.5,223.5C 226.532,225.607 226.198,227.941 226.5,230.5C 228.547,230.489 230.547,230.156 232.5,229.5C 234.038,229.453 235.038,230.12 235.5,231.5C 234.903,231.735 234.57,232.235 234.5,233C 235.729,234.386 236.729,235.886 237.5,237.5C 236.078,237.75 235.078,238.583 234.5,240C 232.735,240.64 231.068,240.473 229.5,239.5C 227.632,238.737 225.965,237.737 224.5,236.5C 225.833,236.167 225.833,235.833 224.5,235.5C 223.833,235.5 223.5,235.167 223.5,234.5C 223.539,232.776 223.206,232.443 222.5,233.5C 221.842,232.207 221.508,230.707 221.5,229C 221.336,226.456 222.003,224.29 223.5,222.5 Z"/></g>
<g><path style="opacity:0.149" fill="#212e2e" d="M 266.5,237.5 C 267.947,236.115 268.947,236.448 269.5,238.5C 268.609,237.89 267.609,237.557 266.5,237.5 Z"/></g>
<g><path style="opacity:0.188" fill="#343f43" d="M 279.5,235.5 C 278.564,236.974 277.23,237.974 275.5,238.5C 274.833,238.5 274.167,238.5 273.5,238.5C 275.181,236.992 277.181,235.992 279.5,235.5 Z"/></g>
<g><path style="opacity:0.067" fill="#4e4e4e" d="M 348.5,237.5 C 347.833,237.5 347.5,237.833 347.5,238.5C 346.427,237.749 346.26,236.749 347,235.5C 347.717,236.044 348.217,236.711 348.5,237.5 Z"/></g>
<g><path style="opacity:1" fill="#86bebe" d="M 182.5,233.5 C 187.695,234.056 192.528,233.056 197,230.5C 197.399,230.728 197.565,231.062 197.5,231.5C 197.634,233.292 197.301,234.958 196.5,236.5C 195.778,236.918 195.278,237.584 195,238.5C 193.483,250.651 194.983,262.317 199.5,273.5C 200.5,273.5 201.5,273.5 202.5,273.5C 202.5,271.833 202.5,270.167 202.5,268.5C 204.292,268.366 205.958,268.699 207.5,269.5C 208.906,269.973 209.573,270.973 209.5,272.5C 209.986,274.807 209.986,276.973 209.5,279C 210.448,279.483 211.448,279.649 212.5,279.5C 212.719,280.675 212.386,281.675 211.5,282.5C 209.994,283.23 208.66,283.563 207.5,283.5C 207.921,287.78 208.921,291.78 210.5,295.5C 210.631,296.239 210.464,296.906 210,297.5C 208.989,296.663 207.822,296.33 206.5,296.5C 202.806,292.449 200.14,287.783 198.5,282.5C 198.539,281.244 198.039,280.244 197,279.5C 196.502,282.817 196.335,286.15 196.5,289.5C 193.833,288.833 191.167,288.167 188.5,287.5C 187.488,284.151 186.488,280.817 185.5,277.5C 181.005,276.257 180.338,277.59 183.5,281.5C 183.5,281.833 183.5,282.167 183.5,282.5C 183.34,284.199 183.506,285.866 184,287.5C 184.671,288.252 185.504,288.586 186.5,288.5C 187.167,291.167 187.833,293.833 188.5,296.5C 187.167,296.5 185.833,296.5 184.5,296.5C 172.98,290.493 165.48,281.16 162,268.5C 161.333,270.833 161.333,273.167 162,275.5C 163.375,280.276 164.708,284.942 166,289.5C 150.908,276.691 144.908,260.691 148,241.5C 145.56,244.728 143.394,248.061 141.5,251.5C 137.774,252.449 136.107,250.782 136.5,246.5C 136.5,245.833 136.5,245.167 136.5,244.5C 137.924,242.485 138.59,240.152 138.5,237.5C 140.421,226.665 144.755,216.998 151.5,208.5C 151.369,209.376 151.702,210.043 152.5,210.5C 156.487,207.943 160.487,205.776 164.5,204C 160.343,207.114 157.51,210.948 156,215.5C 157.333,214.167 158.667,212.833 160,211.5C 160.167,211.833 160.333,212.167 160.5,212.5C 154.408,224.55 153.908,236.884 159,249.5C 159.333,244.167 159.667,238.833 160,233.5C 160.667,232.167 161.333,230.833 162,229.5C 163.961,232.463 166.294,235.129 169,237.5C 171.219,241.271 172.885,245.271 174,249.5C 173.711,233.193 176.544,233.193 182.5,249.5C 183.318,246.893 183.818,244.226 184,241.5C 184.333,243.833 184.667,246.167 185,248.5C 185.333,248.167 185.667,247.833 186,247.5C 187.025,242.922 188.525,238.588 190.5,234.5C 187.615,234.806 184.948,234.473 182.5,233.5 Z"/></g>
<g><path style="opacity:0.922" fill="#86a6a8" d="M 237.5,237.5 C 238.124,237.917 238.457,238.584 238.5,239.5C 236.121,241.418 236.121,243.085 238.5,244.5C 238.5,244.833 238.5,245.167 238.5,245.5C 234.425,245.089 231.425,243.089 229.5,239.5C 231.068,240.473 232.735,240.64 234.5,240C 235.078,238.583 236.078,237.75 237.5,237.5 Z"/></g>
<g><path style="opacity:1" fill="#8bb2b0" d="M 266.5,237.5 C 267.609,237.557 268.609,237.89 269.5,238.5C 270.833,238.5 272.167,238.5 273.5,238.5C 274.167,238.5 274.833,238.5 275.5,238.5C 273.47,241.182 270.803,242.849 267.5,243.5C 267.672,242.508 267.338,241.842 266.5,241.5C 266.5,241.167 266.5,240.833 266.5,240.5C 265.167,239.5 265.167,238.5 266.5,237.5 Z"/></g>
<g><path style="opacity:0.333" fill="#2d4a4d" d="M 138.5,237.5 C 138.59,240.152 137.924,242.485 136.5,244.5C 136.41,241.848 137.076,239.515 138.5,237.5 Z"/></g>
<g><path style="opacity:0.153" fill="#2b373a" d="M 266.5,241.5 C 267.338,241.842 267.672,242.508 267.5,243.5C 267.167,244.5 266.5,245.167 265.5,245.5C 265.833,244.167 266.167,242.833 266.5,241.5 Z"/></g>
<g><path style="opacity:0.069" fill="#191d21" d="M 303.5,225.5 C 302.549,226.919 302.216,228.585 302.5,230.5C 301.776,232.218 301.109,234.052 300.5,236C 301.823,236.816 302.489,237.983 302.5,239.5C 301.883,239.389 301.383,239.056 301,238.5C 300.501,242.152 300.335,245.818 300.5,249.5C 300.737,250.791 300.404,251.791 299.5,252.5C 299.642,245.225 299.642,238.058 299.5,231C 300.022,230.05 300.689,229.216 301.5,228.5C 300.13,225.561 300.797,224.561 303.5,225.5 Z"/></g>
<g><path style="opacity:0.196" fill="#414648" d="M 241.5,247.5 C 244.257,248.512 246.924,249.512 249.5,250.5C 246.169,250.982 243.503,249.982 241.5,247.5 Z"/></g>
<g><path style="opacity:0.904" fill="#6f9798" d="M 196.5,236.5 C 194.884,248.235 196.384,259.569 201,270.5C 201.154,267.937 200.654,265.437 199.5,263C 199.833,262.5 200.167,262 200.5,261.5C 203.595,263.589 205.929,266.256 207.5,269.5C 205.958,268.699 204.292,268.366 202.5,268.5C 202.5,270.167 202.5,271.833 202.5,273.5C 201.5,273.5 200.5,273.5 199.5,273.5C 194.983,262.317 193.483,250.651 195,238.5C 195.278,237.584 195.778,236.918 196.5,236.5 Z"/></g>
<g><path style="opacity:0.99" fill="#5c7e80" d="M 136.5,246.5 C 136.107,250.782 137.774,252.449 141.5,251.5C 140.94,255.193 140.273,258.86 139.5,262.5C 138.833,261.5 138.167,260.5 137.5,259.5C 135.922,255.11 135.588,250.777 136.5,246.5 Z"/></g>
<g><path style="opacity:1" fill="#78acac" d="M 307.5,233.5 C 307.062,233.435 306.728,233.601 306.5,234C 311.697,241.859 312.864,250.359 310,259.5C 309.385,261.116 308.385,262.449 307,263.5C 307.222,255.721 305.555,248.388 302,241.5C 301.817,244.365 301.317,247.031 300.5,249.5C 300.335,245.818 300.501,242.152 301,238.5C 301.383,239.056 301.883,239.389 302.5,239.5C 303.167,240.833 303.833,242.167 304.5,243.5C 305.32,245.812 306.153,248.146 307,250.5C 307.556,248.115 307.39,245.782 306.5,243.5C 305.21,239.918 304.21,236.251 303.5,232.5C 304.962,231.529 306.295,231.862 307.5,233.5 Z"/></g>
<g><path style="opacity:0.973" fill="#0f373d" d="M 304.5,243.5 C 305.167,243.5 305.833,243.5 306.5,243.5C 307.39,245.782 307.556,248.115 307,250.5C 306.153,248.146 305.32,245.812 304.5,243.5 Z"/></g>
<g><path style="opacity:0.463" fill="#585e60" d="M 357.5,253.5 C 358.797,255.371 359.797,257.371 360.5,259.5C 360.766,261.347 360.432,262.014 359.5,261.5C 358.518,258.904 357.851,256.238 357.5,253.5 Z"/></g>
<g><path style="opacity:0.553" fill="#59595e" d="M 249.5,250.5 C 250.317,252.969 250.817,255.635 251,258.5C 251.183,255.635 251.683,252.969 252.5,250.5C 252.5,253.833 252.5,257.167 252.5,260.5C 251.209,260.737 250.209,260.404 249.5,259.5C 249.5,256.5 249.5,253.5 249.5,250.5 Z"/></g>
<g><path style="opacity:0.055" fill="#1a3838" d="M 137.5,259.5 C 138.167,260.5 138.833,261.5 139.5,262.5C 139.607,264.379 139.107,264.712 138,263.5C 137.51,262.207 137.343,260.873 137.5,259.5 Z"/></g>
<g><path style="opacity:0.864" fill="#a3a4a9" d="M 267.5,263.5 C 272.833,263.5 278.167,263.5 283.5,263.5C 278.232,265.542 272.899,265.542 267.5,263.5 Z"/></g>
<g><path style="opacity:0.584" fill="#676d70" d="M 292.5,264.5 C 292.027,265.906 291.027,266.573 289.5,266.5C 289.973,265.094 290.973,264.427 292.5,264.5 Z"/></g>
<g><path style="opacity:0.212" fill="#32363d" d="M 233.5,269.5 C 231.833,269.5 230.167,269.5 228.5,269.5C 226.833,269.5 225.167,269.5 223.5,269.5C 226.171,268.702 229.004,268.035 232,267.5C 233.03,267.836 233.53,268.503 233.5,269.5 Z"/></g>
<g><path style="opacity:1" fill="#e2e6e7" d="M 228.5,269.5 C 230.167,269.5 231.833,269.5 233.5,269.5C 232.943,274.165 231.61,278.498 229.5,282.5C 227.577,278.346 227.243,274.012 228.5,269.5 Z"/></g>
<g><path style="opacity:0.09" fill="#2b3033" d="M 277.5,270.5 C 273.958,270.187 270.625,270.521 267.5,271.5C 266.957,271.44 266.624,271.107 266.5,270.5C 270.315,269.192 273.981,269.192 277.5,270.5 Z"/></g>
<g><path style="opacity:1" fill="#85898d" d="M 287.5,267.5 C 286.402,268.397 286.402,269.23 287.5,270C 285.525,271.649 283.858,273.482 282.5,275.5C 282.679,271.791 284.346,269.124 287.5,267.5 Z"/></g>
<g><path style="opacity:1" fill="#c4cfd1" d="M 277.5,270.5 C 276.291,274.589 274.791,278.589 273,282.5C 270.628,279.09 268.795,275.423 267.5,271.5C 270.625,270.521 273.958,270.187 277.5,270.5 Z"/></g>
<g><path style="opacity:0.047" fill="#202426" d="M 336.5,276.5 C 336.806,273.615 336.473,270.948 335.5,268.5C 335.995,266.518 336.495,264.518 337,262.5C 337.815,267.352 337.648,272.019 336.5,276.5 Z"/></g>
<g><path style="opacity:1" fill="#90a7a9" d="M 223.5,269.5 C 225.167,269.5 226.833,269.5 228.5,269.5C 227.243,274.012 227.577,278.346 229.5,282.5C 228.434,283.692 227.601,283.359 227,281.5C 225.119,277.693 223.953,273.693 223.5,269.5 Z"/></g>
<g><path style="opacity:1" fill="#668f93" d="M 188.5,287.5 C 187.075,285.969 186.409,286.302 186.5,288.5C 185.504,288.586 184.671,288.252 184,287.5C 183.506,285.866 183.34,284.199 183.5,282.5C 184.833,282.167 184.833,281.833 183.5,281.5C 180.338,277.59 181.005,276.257 185.5,277.5C 186.488,280.817 187.488,284.151 188.5,287.5 Z"/></g>
<g><path style="opacity:0.475" fill="#58585c" d="M 282.5,275.5 C 282.706,278.495 282.04,281.162 280.5,283.5C 280.294,280.505 280.96,277.838 282.5,275.5 Z"/></g>
<g><path style="opacity:1" fill="#84868a" d="M 239.5,289.5 C 237.296,290.351 235.963,289.351 235.5,286.5C 236.875,283.271 239.208,282.104 242.5,283C 240.549,284.734 239.549,286.901 239.5,289.5 Z"/></g>
<g><path style="opacity:0.22" fill="#4d4d4d" d="M 298.5,288.5 C 298.709,287.078 299.209,285.745 300,284.5C 300.844,286.463 300.344,287.796 298.5,288.5 Z"/></g>
<g><path style="opacity:1" fill="#856675" d="M 265.5,288.5 C 265.573,290.027 264.906,291.027 263.5,291.5C 262.833,291.5 262.5,291.833 262.5,292.5C 254.882,293.6 247.215,293.767 239.5,293C 238.829,292.014 238.829,290.847 239.5,289.5C 239.833,289.5 240.167,289.5 240.5,289.5C 240.5,290.5 240.5,291.5 240.5,292.5C 247.535,292.674 254.535,292.341 261.5,291.5C 261.838,288.843 261.171,286.51 259.5,284.5C 254.481,283.272 249.481,283.272 244.5,284.5C 246.375,282.761 248.708,281.761 251.5,281.5C 254.475,282.139 257.475,282.639 260.5,283C 263.113,284.107 264.78,285.94 265.5,288.5 Z"/></g>
<g><path style="opacity:0.02" fill="#2f393d" d="M 280.5,283.5 C 280.5,284.833 280.5,286.167 280.5,287.5C 279.833,288.5 279.167,289.5 278.5,290.5C 278.41,287.848 279.076,285.515 280.5,283.5 Z"/></g>
<g><path style="opacity:0.284" fill="#636666" d="M 289.5,291.5 C 289.784,289.585 289.451,287.919 288.5,286.5C 288.351,285.448 288.517,284.448 289,283.5C 290.636,286.227 290.802,288.893 289.5,291.5 Z"/></g>
<g><path style="opacity:0.157" fill="#303437" d="M 334.5,283.5 C 333.646,285.035 333.646,286.368 334.5,287.5C 333.365,289.088 332.031,289.421 330.5,288.5C 331.612,286.581 332.946,284.914 334.5,283.5 Z"/></g>
<g><path style="opacity:1" fill="#dadcdd" d="M 280.5,287.5 C 280.461,288.756 280.961,289.756 282,290.5C 282.667,289.167 283.333,289.167 284,290.5C 284.791,291.745 285.291,293.078 285.5,294.5C 284.542,294.047 283.708,293.381 283,292.5C 282.536,293.094 282.369,293.761 282.5,294.5C 281.594,301.979 278.761,308.645 274,314.5C 272.595,313.269 271.429,311.936 270.5,310.5C 269.347,309.687 269.347,308.687 270.5,307.5C 270.043,306.702 269.376,306.369 268.5,306.5C 268.5,306.167 268.5,305.833 268.5,305.5C 270.027,305.573 271.027,304.906 271.5,303.5C 275.118,299.876 277.451,295.543 278.5,290.5C 279.167,289.5 279.833,288.5 280.5,287.5 Z"/></g>
<g><path style="opacity:0.475" fill="#648b87" d="M 285.5,294.5 C 285.5,295.167 285.833,295.5 286.5,295.5C 284.346,300.67 283.012,300.337 282.5,294.5C 282.369,293.761 282.536,293.094 283,292.5C 283.708,293.381 284.542,294.047 285.5,294.5 Z"/></g>
<g><path style="opacity:0.902" fill="#98b7b7" d="M 315.5,294.5 C 315.167,295.5 314.5,296.167 313.5,296.5C 312.5,296.5 311.5,296.5 310.5,296.5C 311.755,294.498 312.422,291.831 312.5,288.5C 312.5,287.833 312.5,287.167 312.5,286.5C 313.833,286.167 313.833,285.833 312.5,285.5C 313.653,283.193 314.82,280.86 316,278.5C 315.931,283.245 315.097,287.911 313.5,292.5C 313.747,293.713 314.414,294.38 315.5,294.5 Z"/></g>
<g><path style="opacity:1" fill="#6e9495" d="M 186.5,288.5 C 190.439,294.108 195.106,299.108 200.5,303.5C 194.929,302.397 189.595,300.064 184.5,296.5C 185.833,296.5 187.167,296.5 188.5,296.5C 187.833,293.833 187.167,291.167 186.5,288.5 Z"/></g>
<g><path style="opacity:1" fill="#d0d9da" d="M 238.5,294.5 C 239.263,295.268 240.263,295.768 241.5,296C 247.833,296.667 254.167,296.667 260.5,296C 262.426,295.578 263.426,294.411 263.5,292.5C 263.5,292.167 263.5,291.833 263.5,291.5C 264.906,291.027 265.573,290.027 265.5,288.5C 265.227,285.817 266.227,284.317 268.5,284C 271.274,288.488 271.607,292.988 269.5,297.5C 268.335,298.584 267.002,299.417 265.5,300C 254.412,302.083 243.412,301.916 232.5,299.5C 229.606,296.03 228.773,292.03 230,287.5C 230.196,285.714 231.029,284.381 232.5,283.5C 234.244,287.322 236.244,290.989 238.5,294.5 Z"/></g>
<g><path style="opacity:1" fill="#c58da4" d="M 240.5,289.5 C 241.08,287.251 242.413,285.585 244.5,284.5C 249.481,283.272 254.481,283.272 259.5,284.5C 261.171,286.51 261.838,288.843 261.5,291.5C 254.535,292.341 247.535,292.674 240.5,292.5C 240.5,291.5 240.5,290.5 240.5,289.5 Z"/></g>
<g><path style="opacity:0.392" fill="#505154" d="M 262.5,292.5 C 262.833,292.5 263.167,292.5 263.5,292.5C 263.426,294.411 262.426,295.578 260.5,296C 254.167,296.667 247.833,296.667 241.5,296C 240.263,295.768 239.263,295.268 238.5,294.5C 243.427,295.201 248.261,295.534 253,295.5C 255.795,294.815 258.628,294.315 261.5,294C 262.056,293.617 262.389,293.117 262.5,292.5 Z"/></g>
<g><path style="opacity:0.031" fill="#212829" d="M 298.5,293.5 C 298.598,295.553 297.931,297.22 296.5,298.5C 296.443,297.391 296.11,296.391 295.5,295.5C 296.5,294.833 297.5,294.167 298.5,293.5 Z"/></g>
<g><path style="opacity:0.886" fill="#5c797c" d="M 311.5,288.5 C 311.833,288.5 312.167,288.5 312.5,288.5C 312.422,291.831 311.755,294.498 310.5,296.5C 311.5,296.5 312.5,296.5 313.5,296.5C 310.469,298.852 307.135,300.352 303.5,301C 304.823,300.184 305.489,299.017 305.5,297.5C 307.664,295.178 309.331,292.511 310.5,289.5C 311.167,289.5 311.5,289.167 311.5,288.5 Z"/></g>
<g><path style="opacity:0.984" fill="#78a5a3" d="M 198.5,282.5 C 197.876,282.917 197.543,283.584 197.5,284.5C 199.296,292.928 203.296,300.094 209.5,306C 200.906,301.922 193.906,295.755 188.5,287.5C 191.167,288.167 193.833,288.833 196.5,289.5C 196.335,286.15 196.502,282.817 197,279.5C 198.039,280.244 198.539,281.244 198.5,282.5 Z"/></g>
<g><path style="opacity:0.008" fill="#010006" d="M 303.5,296.5 C 304.492,296.328 305.158,296.662 305.5,297.5C 304.518,298.141 303.518,298.807 302.5,299.5C 301.893,299.376 301.56,299.043 301.5,298.5C 302.167,298.5 302.5,298.167 302.5,297.5C 303.167,297.5 303.5,297.167 303.5,296.5 Z"/></g>
<g><path style="opacity:0.875" fill="#6c6a71" d="M 288.5,295.5 C 288.88,297.698 288.213,299.365 286.5,300.5C 286.402,298.447 287.069,296.78 288.5,295.5 Z"/></g>
<g><path style="opacity:1" fill="#7aabac" d="M 209.5,272.5 C 215.316,280.115 220.15,288.449 224,297.5C 227.515,301.841 232.015,304.507 237.5,305.5C 237.5,305.833 237.5,306.167 237.5,306.5C 236.504,306.414 235.671,306.748 235,307.5C 234.692,306.692 234.192,306.025 233.5,305.5C 231.099,308.413 229.766,308.079 229.5,304.5C 228.5,304.5 227.5,304.5 226.5,304.5C 226.5,303.5 226.5,302.5 226.5,301.5C 224.876,301.36 223.71,302.027 223,303.5C 223.239,306.249 223.072,308.915 222.5,311.5C 220.991,306.825 219.158,302.159 217,297.5C 216.259,298.641 215.425,298.641 214.5,297.5C 212.731,294.294 211.231,290.961 210,287.5C 209.825,290.157 209.992,292.824 210.5,295.5C 208.921,291.78 207.921,287.78 207.5,283.5C 208.66,283.563 209.994,283.23 211.5,282.5C 212.386,281.675 212.719,280.675 212.5,279.5C 211.448,279.649 210.448,279.483 209.5,279C 209.986,276.973 209.986,274.807 209.5,272.5 Z"/></g>
<g><path style="opacity:0.902" fill="#678889" d="M 210.5,295.5 C 213.221,299.608 215.387,303.942 217,308.5C 212.896,304.905 209.396,300.905 206.5,296.5C 207.822,296.33 208.989,296.663 210,297.5C 210.464,296.906 210.631,296.239 210.5,295.5 Z"/></g>
<g><path style="opacity:0.588" fill="#676a6f" d="M 296.5,298.5 C 296.328,299.492 296.662,300.158 297.5,300.5C 296.335,302.416 294.668,303.249 292.5,303C 294.07,301.603 295.404,300.103 296.5,298.5 Z"/></g>
<g><path style="opacity:0.471" fill="#59565d" d="M 271.5,303.5 C 271.027,304.906 270.027,305.573 268.5,305.5C 268.973,304.094 269.973,303.427 271.5,303.5 Z"/></g>
<g><path style="opacity:0.196" fill="#53585d" d="M 286.5,300.5 C 286.263,301.791 286.596,302.791 287.5,303.5C 286.496,304.683 285.662,306.016 285,307.5C 284.412,304.861 284.912,302.527 286.5,300.5 Z"/></g>
<g><path style="opacity:0.376" fill="#475457" d="M 237.5,306.5 C 237.5,306.167 237.5,305.833 237.5,305.5C 248.077,306.009 258.41,306.009 268.5,305.5C 268.5,305.833 268.5,306.167 268.5,306.5C 263.881,307.314 259.214,307.647 254.5,307.5C 249.025,306.511 243.358,306.178 237.5,306.5 Z"/></g>
<g><path style="opacity:1" fill="#6c9397" d="M 231.5,317.5 C 229.777,315.747 228.277,313.747 227,311.5C 224.533,319.187 223.033,319.187 222.5,311.5C 224.942,311.881 225.609,311.214 224.5,309.5C 226.187,308.432 227.854,308.599 229.5,310C 230.554,312.382 231.221,314.882 231.5,317.5 Z"/></g>
<g><path style="opacity:1" fill="#eef7f8" d="M 268.5,306.5 C 269.376,306.369 270.043,306.702 270.5,307.5C 269.347,308.687 269.347,309.687 270.5,310.5C 270.645,314.547 268.978,317.547 265.5,319.5C 264.761,319.631 264.094,319.464 263.5,319C 265.26,318.035 265.594,316.868 264.5,315.5C 256.701,320.963 248.034,322.963 238.5,321.5C 237.508,321.672 236.842,321.338 236.5,320.5C 243.213,320.344 249.546,318.511 255.5,315C 255,314.833 254.5,314.667 254,314.5C 249.208,315.586 244.375,315.753 239.5,315C 238.5,314.167 237.5,313.333 236.5,312.5C 242.923,312.063 248.923,310.396 254.5,307.5C 259.214,307.647 263.881,307.314 268.5,306.5 Z"/></g>
<g><path style="opacity:1" fill="#90c2c2" d="M 237.5,306.5 C 243.358,306.178 249.025,306.511 254.5,307.5C 248.923,310.396 242.923,312.063 236.5,312.5C 237.5,313.333 238.5,314.167 239.5,315C 244.375,315.753 249.208,315.586 254,314.5C 254.5,314.667 255,314.833 255.5,315C 249.546,318.511 243.213,320.344 236.5,320.5C 234.326,320.25 232.659,319.25 231.5,317.5C 231.221,314.882 230.554,312.382 229.5,310C 227.854,308.599 226.187,308.432 224.5,309.5C 225.609,311.214 224.942,311.881 222.5,311.5C 223.072,308.915 223.239,306.249 223,303.5C 223.71,302.027 224.876,301.36 226.5,301.5C 226.5,302.5 226.5,303.5 226.5,304.5C 227.5,304.5 228.5,304.5 229.5,304.5C 229.766,308.079 231.099,308.413 233.5,305.5C 234.192,306.025 234.692,306.692 235,307.5C 235.671,306.748 236.504,306.414 237.5,306.5 Z"/></g>
<g><path style="opacity:1" fill="#85aba9" d="M 265.5,319.5 C 263.507,321.163 261.174,322.33 258.5,323C 253.167,323.667 247.833,323.667 242.5,323C 240.942,322.79 239.609,322.29 238.5,321.5C 248.034,322.963 256.701,320.963 264.5,315.5C 265.594,316.868 265.26,318.035 263.5,319C 264.094,319.464 264.761,319.631 265.5,319.5 Z"/></g>
<g><path style="opacity:1" fill="#e7e8e8" d="M 118.5,338.5 C 122.846,338.334 127.179,338.501 131.5,339C 136.976,340.952 138.643,344.618 136.5,350C 132.694,349.776 128.861,349.276 125,348.5C 120.289,348.64 119.455,350.474 122.5,354C 127.122,355.427 131.455,357.427 135.5,360C 140.205,365.078 140.705,370.578 137,376.5C 134.559,378.969 131.726,380.802 128.5,382C 123.833,382.667 119.167,382.667 114.5,382C 108.908,379.598 107.075,375.431 109,369.5C 113.888,372.007 119.054,372.84 124.5,372C 125.747,370.506 125.747,369.006 124.5,367.5C 116.327,366.178 110.493,361.844 107,354.5C 106.381,345.954 110.215,340.62 118.5,338.5 Z"/></g>
<g><path style="opacity:1" fill="#edeeee" d="M 169.5,338.5 C 171.927,338.523 174.26,339.023 176.5,340C 183.355,351.052 187.688,363.052 189.5,376C 189.371,377.981 188.704,379.647 187.5,381C 184.5,381.667 181.5,381.667 178.5,381C 177.833,379 177.167,377 176.5,375C 173.118,374.176 169.784,374.343 166.5,375.5C 165.907,377.382 165.24,379.215 164.5,381C 153.602,383.08 150.435,378.913 155,368.5C 157.548,359.52 160.882,350.853 165,342.5C 166.397,340.93 167.897,339.596 169.5,338.5 Z M 173.5,356.5 C 173.318,358.591 173.652,360.591 174.5,362.5C 173.332,364.217 171.665,364.884 169.5,364.5C 169.5,362.5 169.5,360.5 169.5,358.5C 170.467,357.194 171.801,356.527 173.5,356.5 Z"/></g>
<g><path style="opacity:1" fill="#eceded" d="M 318.5,338.5 C 320.927,338.523 323.26,339.023 325.5,340C 332.355,351.052 336.688,363.052 338.5,376C 338.371,377.981 337.704,379.647 336.5,381C 333.5,381.667 330.5,381.667 327.5,381C 327.415,376.027 324.915,373.86 320,374.5C 318.5,374.833 317,375.167 315.5,375.5C 314.907,377.382 314.24,379.215 313.5,381C 309.683,382.023 306.183,381.523 303,379.5C 304.217,366.509 307.884,354.175 314,342.5C 315.397,340.93 316.897,339.596 318.5,338.5 Z M 318.5,358.5 C 319.267,357.828 319.934,356.995 320.5,356C 320.272,355.601 319.938,355.435 319.5,355.5C 319.783,354.711 320.283,354.044 321,353.5C 321.679,356.55 322.512,359.55 323.5,362.5C 322.332,364.217 320.665,364.884 318.5,364.5C 318.5,362.5 318.5,360.5 318.5,358.5 Z"/></g>
<g><path style="opacity:1" fill="#e6e7e7" d="M 209.5,339.5 C 212.685,339.02 215.519,339.686 218,341.5C 218.972,351.193 219.972,360.86 221,370.5C 226,371.167 231,371.833 236,372.5C 237.123,375.956 236.29,378.79 233.5,381C 224.624,383.546 216.124,382.712 208,378.5C 206.005,372.699 205.171,366.699 205.5,360.5C 205.667,356.5 205.833,352.5 206,348.5C 206.117,345.037 207.284,342.037 209.5,339.5 Z"/></g>
<g><path style="opacity:1" fill="#e9eaea" d="M 253.5,339.5 C 257.287,338.814 260.454,339.814 263,342.5C 265.129,350.152 267.129,357.819 269,365.5C 271.907,358.001 274.573,350.001 277,341.5C 285.522,337.344 288.855,340.01 287,349.5C 284.458,359.126 281.125,368.459 277,377.5C 273.987,382.535 269.82,383.702 264.5,381C 258.777,371.175 254.611,360.675 252,349.5C 251.037,345.851 251.537,342.518 253.5,339.5 Z"/></g>
<g><path style="opacity:1" fill="#efeff0" d="M 368.5,363.5 C 367.377,362.243 366.711,362.576 366.5,364.5C 366.504,368.027 366.837,371.527 367.5,375C 367.458,376.967 366.958,378.801 366,380.5C 363.263,381.61 360.429,381.777 357.5,381C 356.874,380.25 356.374,379.416 356,378.5C 354.464,368.218 354.13,357.885 355,347.5C 355.478,340.681 358.978,338.181 365.5,340C 367,341.5 368.5,343 370,344.5C 372.079,348.993 374.412,353.326 377,357.5C 378.239,351.944 378.906,346.278 379,340.5C 381.401,339.398 383.901,339.231 386.5,340C 387.667,340.5 388.5,341.333 389,342.5C 390.573,353.441 390.906,364.441 390,375.5C 388.221,381.161 384.388,382.995 378.5,381C 374.511,375.519 371.178,369.685 368.5,363.5 Z"/></g>
<g><path style="opacity:0.024" fill="#333435" d="M 171.5,353.5 C 171.461,355.224 171.794,355.557 172.5,354.5C 173.338,354.842 173.672,355.508 173.5,356.5C 171.801,356.527 170.467,357.194 169.5,358.5C 169.402,356.447 170.069,354.78 171.5,353.5 Z"/></g>
<g><path style="opacity:0.325" fill="#48494c" d="M 319.5,355.5 C 319.938,355.435 320.272,355.601 320.5,356C 319.934,356.995 319.267,357.828 318.5,358.5C 318.263,357.209 318.596,356.209 319.5,355.5 Z"/></g>
<g><path style="opacity:0.133" fill="#343435" d="M 368.5,363.5 C 367.833,363.833 367.167,364.167 366.5,364.5C 366.711,362.576 367.377,362.243 368.5,363.5 Z"/></g>
<g><path style="opacity:0.31" fill="#363638" d="M 159.5,400.5 C 160.167,401.5 160.833,402.5 161.5,403.5C 158.949,403.332 158.282,402.332 159.5,400.5 Z"/></g>
<g><path style="opacity:0.384" fill="#6b6e71" d="M 338.5,396.5 C 334.833,396.5 331.167,396.5 327.5,396.5C 327.5,402.833 327.5,409.167 327.5,415.5C 326.509,409.021 326.176,402.354 326.5,395.5C 330.702,395.183 334.702,395.517 338.5,396.5 Z"/></g>
<g><path style="opacity:1" fill="#b3b5b8" d="M 159.5,400.5 C 158.282,402.332 158.949,403.332 161.5,403.5C 169.572,404.251 171.572,408.085 167.5,415C 163.833,417 160.167,417 156.5,415C 154.549,413.266 153.549,411.099 153.5,408.5C 156.92,408.074 159.753,409.074 162,411.5C 162.833,411.167 163.667,410.833 164.5,410.5C 160.876,408.445 157.376,406.111 154,403.5C 153.168,399.006 155.002,396.172 159.5,395C 165.263,394.372 168.597,396.872 169.5,402.5C 166.373,402.514 163.707,401.514 161.5,399.5C 160.584,399.543 159.917,399.876 159.5,400.5 Z"/></g>
<g><path style="opacity:0.999" fill="#c9cacc" d="M 338.5,396.5 C 341.675,396.84 343.841,398.507 345,401.5C 346.858,407.581 345.025,412.081 339.5,415C 335.514,415.499 331.514,415.666 327.5,415.5C 327.5,409.167 327.5,402.833 327.5,396.5C 331.167,396.5 334.833,396.5 338.5,396.5 Z M 337.5,410.5 C 335.114,410.741 333.114,410.075 331.5,408.5C 332.092,405.873 332.425,403.206 332.5,400.5C 340.113,401.058 341.78,404.391 337.5,410.5 Z"/></g>
<g><path style="opacity:0.997" fill="#bebfc2" d="M 289.5,395.5 C 291.467,395.261 293.301,395.594 295,396.5C 297.371,402.738 299.871,408.905 302.5,415C 301.5,415.167 300.5,415.333 299.5,415.5C 297.308,413.841 294.808,412.841 292,412.5C 289.192,412.841 286.692,413.841 284.5,415.5C 283.5,415.167 282.5,414.833 281.5,414.5C 284.458,408.256 287.124,401.923 289.5,395.5 Z M 291.5,402.5 C 292.391,404.291 293.391,406.124 294.5,408C 292.833,408.667 291.167,408.667 289.5,408C 291.155,406.556 291.822,404.722 291.5,402.5 Z"/></g>
<g><path style="opacity:1" fill="#bfc0c3" d="M 240.5,395.5 C 242.167,395.5 243.833,395.5 245.5,395.5C 245.334,399.846 245.501,404.179 246,408.5C 247.614,411.825 249.614,412.158 252,409.5C 252.499,404.845 252.666,400.179 252.5,395.5C 254.167,395.5 255.833,395.5 257.5,395.5C 257.666,400.844 257.499,406.177 257,411.5C 253.6,416.452 249.1,417.618 243.5,415C 242.299,414.097 241.465,412.931 241,411.5C 240.501,406.177 240.334,400.844 240.5,395.5 Z"/></g>
<g><path style="opacity:0.118" fill="#2f2f33" d="M 331.5,408.5 C 333.114,410.075 335.114,410.741 337.5,410.5C 335.735,411.461 333.735,411.795 331.5,411.5C 331.5,410.5 331.5,409.5 331.5,408.5 Z"/></g>
<g><path style="opacity:1" fill="#babcbe" d="M 211.5,414.5 C 210.662,414.842 210.328,415.508 210.5,416.5C 211.209,417.404 212.209,417.737 213.5,417.5C 213.5,418.5 213.5,419.5 213.5,420.5C 213.44,421.043 213.107,421.376 212.5,421.5C 210.885,420.846 209.218,420.346 207.5,420C 203.323,417.317 199.156,414.484 195,411.5C 191.87,398.962 196.704,393.795 209.5,396C 215.025,398.919 216.858,403.419 215,409.5C 214.003,411.323 212.836,412.99 211.5,414.5 Z M 201.5,400.5 C 208,399.499 210.5,402.165 209,408.5C 206,412.5 203,412.5 200,408.5C 199.109,405.502 199.609,402.836 201.5,400.5 Z"/></g>
<g><path style="opacity:0.365" fill="#4f5054" d="M 211.5,414.5 C 213.986,416.091 214.652,418.091 213.5,420.5C 213.5,419.5 213.5,418.5 213.5,417.5C 212.209,417.737 211.209,417.404 210.5,416.5C 211.338,416.158 211.672,415.492 211.5,414.5 Z"/></g>
</svg>
